<?xml version="1.0" encoding="utf-8"?>

<svg version="1.1" id="Layer_1" xmlns="http://www.w3.org/2000/svg" xmlns:xlink="http://www.w3.org/1999/xlink" x="0px" y="0px"
	 viewBox="0 0 100 100" style="enable-background:new 0 0 100 100;" xml:space="preserve">
<style type="text/css">
	.st0{fill:#ECEAE7;stroke:#9F2626;stroke-width:8;stroke-miterlimit:10;}
</style>
<g id="Communication__x2F__Chat">
	<path id="Vector" class="st0" d="M23.3,83l6.3-5.1l0,0c1.3-1.1,2-1.6,2.7-2c0.7-0.3,1.4-0.6,2.1-0.7c1-0.2,1.9-0.2,3.6-0.2h36.2
		c4.7,0,7,0,8.8-0.9c1.6-0.8,2.8-2.1,3.6-3.6c0.9-1.8,0.9-4.1,0.9-8.8V30c0-4.7,0-7-0.9-8.8c-0.8-1.6-2.1-2.8-3.6-3.6
		c-1.8-0.9-4.1-0.9-8.8-0.9H25.8c-4.7,0-7,0-8.8,0.9c-1.6,0.8-2.8,2.1-3.6,3.6c-0.9,1.8-0.9,4.1-0.9,8.8v47.8c0,4.4,0,6.7,0.9,7.8
		c0.8,1,2,1.6,3.3,1.6C18.1,87.2,19.9,85.8,23.3,83z"/>
</g>
</svg>
