<?xml version="1.0" encoding="utf-8"?>
<!-- Generator: Adobe Illustrator 24.0.1, SVG Export Plug-In . SVG Version: 6.00 Build 0)  -->
<svg version="1.1" id="_x32_" xmlns="http://www.w3.org/2000/svg" xmlns:xlink="http://www.w3.org/1999/xlink" x="0px" y="0px"
	 viewBox="0 0 800 800" style="enable-background:new 0 0 800 800;" xml:space="preserve">
<style type="text/css">
	.st0{fill:#ECEAE7;}
	.st1{fill:#9F2626;}
</style>
<g>
	<path class="st0" d="M214,161c-77.4,105.4-55.7,237.5-46,296c15.3,92.8,29.8,180.4,107,231c64.8,42.5,154.4,46.2,221,13
		c166.6-83,129.2-367.2,125-396c-10.2-70.5-27-187.1-119-232c-70-34.2-157.1-13.9-213,19C279.9,97.4,245.1,118.7,214,161z"/>
	<path class="st1" d="M400,0C179.1,0,0,179.1,0,400s179.1,400,400,400s400-179.1,400-400S620.9,0,400,0z M324.5,591.9
		c0-27.5,22.3-49.8,49.8-49.8c27.5,0,49.8,22.3,49.8,49.8c0,27.5-22.3,49.8-49.8,49.8C346.8,641.7,324.5,619.4,324.5,591.9z
		 M536.9,342c-5.6,15.3-13.8,28.6-23,39.6c-18.5,22.1-40.5,35.5-58.5,45.4c-12.1,6.5-22.7,11.5-29.3,15.3c-4.5,2.5-7,4.6-8.2,6
		c-1.2,1.4-1.6,2-2.3,4.4c-0.4,1.6-0.9,4.1-0.9,8c0,10.7,0,19.5,0,19.5c0,10.1-8.2,18.3-18.3,18.3h-44.1c-10.1,0-18.3-8.2-18.3-18.3
		c0,0,0-8.8,0-19.5c0-10.1,1.2-19.9,3.8-29.3c2.6-9.4,6.6-18.3,11.7-26.1c10.3-15.8,24.3-26.3,37.5-33.6c11.6-6.4,23-11.6,33.6-17.6
		c10.6-5.9,20.1-12.4,27-19.3c4.7-4.6,8.3-9.5,11.1-14.9c3.6-7.2,6.2-15.7,6.2-28.7c0-3.8-1.1-8.9-4.1-14.7c-3-5.8-7.9-12-14.5-17.6
		c-13.2-11.3-32.6-19.6-54.8-19.6c-25.4,0.1-42.5,6.1-55.6,13.5c-13.1,7.5-17.2,15-17.2,15c-6.7,5.8-16.6,6-23.5,0.5l-33.9-27.2
		c-4.2-3.4-6.8-8.5-6.9-13.9c-0.1-5.4,2.2-10.6,6.3-14.2c0,0,10.6-16.3,35.1-30.3c24.4-14,56.8-24.2,95.7-24.1
		c31.6,0,60.7,8.7,84.8,22.9c24.1,14.3,43.6,34,56,57.6c8.3,15.7,13.3,33.5,13.3,52.2C545.6,309.4,542.6,326.7,536.9,342z"/>
</g>
<path class="st1" d="M93.7,142.8c-14.1-10.6-31.1-25.5-47.2-46.1C17.8,60,5.6,23.1,0,0c21.5,17.3,52.5,38.5,93.3,55.3
	C148,77.9,197,83.2,229.1,84.1C183.9,103.6,138.8,123.2,93.7,142.8z"/>
<path class="st1" d="M706.3,142.8c14.1-10.6,31.1-25.5,47.2-46.1C782.2,60,794.4,23.1,800,0c-21.5,17.3-52.5,38.5-93.3,55.3
	C652,77.9,603,83.2,570.9,84.1C616.1,103.6,661.2,123.2,706.3,142.8z"/>
</svg>
