<?xml version="1.0" encoding="utf-8"?>
<!-- Generator: Adobe Illustrator 24.0.1, SVG Export Plug-In . SVG Version: 6.00 Build 0)  -->
<svg version="1.1" id="Layer_1" xmlns="http://www.w3.org/2000/svg" xmlns:xlink="http://www.w3.org/1999/xlink" x="0px" y="0px"
	 viewBox="0 0 800 800" style="enable-background:new 0 0 800 800;" xml:space="preserve">
<style type="text/css">
	.st0{fill:#9F2626;}
	.st1{fill:#ECEAE7;}
</style>
<g>
	<path class="st0" d="M189,450c0.3,23.2,9.6,40.6,12,45c25.2,45.8,55,77,55,77c88.9,93,82.6,102.5,119,122c20,10.7,48.5,25.5,87,24
		c51.7-2,87.1-31.8,100-43c6.5-5.7,36.3-32.3,53-78c6.2-17,3.4-16.8,3-143c-0.1-24.8,0-45.1-14-57c-11.9-10.1-22-4-45-16
		c-20.5-10.7-17.1-17.8-38-29c-17.9-9.5-20.6-4.4-49-17c-1.8-0.8-15.5-7-32-18c-17.9-12-20.9-17.6-22-20c-5.2-11.2-1-22.4,2-33
		c3.3-11.9,17.3-67-5-98c-2.4-3.3-11.7-16.3-27-18c-12.7-1.4-23,5.9-26,8c-2.8,1.9-10.4,7.8-16,20c-7.2,15.7-3,24.5-3,55
		c0,31.2-4.4,30.8-3,58c0.5,9.1,1.4,19,1,35c-0.3,10.6-0.9,11.4-1,22c-0.2,13.4,0.6,17.9,1,34c0.4,15.7-0.3,15.1,0,25
		c1.2,34.5,9.6,46.8,2,55c-4.4,4.8-11.3,4.9-20,5c-10.7,0.1-21.6-2.7-43-15c-26.5-15.2-24.9-19.4-40-25c-6.1-2.2-32.8-12.1-45,0
		C188.9,431,188.9,440.1,189,450z"/>
</g>
<path class="st1" d="M566.7,416.7V450c0,9.2-7.5,16.7-16.7,16.7c-9.2,0-16.7-7.5-16.7-16.7v-66.7c0-9.2-7.5-16.7-16.7-16.7
	c-9.2,0-16.7,7.5-16.7,16.7V450c0,9.2-7.5,16.7-16.7,16.7s-16.7-7.5-16.7-16.7V350c0-9.2-7.5-16.7-16.7-16.7
	c-9.2,0-16.7,7.5-16.7,16.7v100c0,9.2-7.5,16.7-16.7,16.7S400,459.2,400,450V183.3c0-9.2-7.5-16.7-16.7-16.7s-16.7,7.5-16.7,16.7
	V350v84.9c0,11-3.9,21.7-10.9,30.2c-16.7,20-46.4,22.7-66.4,6l-30.8-25.7c-9.4-7.8-21.3-12.1-33.5-12.1c-8.9,0-17,5.1-20.8,13.1
	l-1.2,2.5c-4.5,9.4-3.1,20.5,3.5,28.5l147.1,177.3c23.8,28.7,59.1,45.3,96.4,45.3c82.8,0,150-67.2,150-150V416.7
	c0-9.2-7.5-16.7-16.7-16.7S566.7,407.5,566.7,416.7z M564.9,370.2c5.7-2.3,11.9-3.5,18.4-3.5c27.6,0,50,22.4,50,50V550
	c0,101.3-82.1,183.3-183.3,183.3c-47.2,0-91.9-21-122.1-57.3L180.8,498.7c-15-18-18-43.1-7.9-64.2l1.2-2.5c9.4-19.5,29.2-32,50.9-32
	c20.1,0,39.5,7,54.9,19.9l30.8,25.7c5.9,4.9,14.6,4.1,19.5-1.8c2.1-2.5,3.2-5.6,3.2-8.8V350V183.3c0-27.6,22.4-50,50-50
	c27.6,0,50,22.4,50,50v119.5c5.2-1.8,10.8-2.8,16.7-2.8c23.1,0,42.5,15.6,48.2,36.8c5.7-2.3,11.9-3.5,18.4-3.5
	C539.7,333.3,559.1,348.9,564.9,370.2z M500,183.3c0,9.2-7.5,16.7-16.7,16.7s-16.7-7.5-16.7-16.7c0-46-37.3-83.3-83.3-83.3
	S300,137.3,300,183.3c0,9.2-7.5,16.7-16.7,16.7s-16.7-7.5-16.7-16.7c0-64.4,52.2-116.7,116.7-116.7S500,118.9,500,183.3z"/>
<path class="st0" d="M-427-83"/>
</svg>
