<?xml version="1.0" encoding="utf-8"?>

<svg version="1.1" id="Layer_1" xmlns="http://www.w3.org/2000/svg" xmlns:xlink="http://www.w3.org/1999/xlink" x="0px" y="0px"
	 viewBox="0 0 32 32" style="enable-background:new 0 0 32 32;" xml:space="preserve">
<style type="text/css">
	.st0{fill:#9F2626;}
	.st1{fill:#ECEAE7;}
</style>
<path class="st0" d="M6.5,6.4c0.7-0.8,2-2.2,4.2-2.9c2.7-0.9,5.1-0.2,6.2,0.1c1.1,0.3,3.2,1,4.9,3c1.2,1.4,1.7,2.9,1.9,3.6
	c0.7,2.5,0.3,4.5,0.2,5.1c-0.6,2.6-2,4.2-2.4,4.7c-1.7,1.8-3.7,2.4-4.8,2.8c-1.4,0.4-4.2,1.3-7.1-0.1c-2.4-1.1-3.6-3.2-4.3-4.4
	C4.5,17,3.4,15,3.6,12.4C3.8,9.3,5.7,7.2,6.5,6.4z"/>
<path class="st1" d="M29,12.9c0-5.3-2.8-10.1-7.4-12.8c-0.5-0.3-1.1-0.1-1.4,0.4s-0.1,1.1,0.4,1.4c4,2.4,6.5,6.5,6.5,11.1
	C27,20.5,21.5,26,14,26c-1.7,0-3.3-0.3-4.9-0.9c-0.5-0.2-1.1,0-1.3,0.6s0,1.1,0.6,1.3C10.1,27.7,12,28,14,28c0,0,0,0,0,0v2h-2.9
	c-0.6,0-1,0.4-1,1s0.5,1,1,1H19c0.6,0,1-0.4,1-1s-0.5-1-1-1h-3v-2.1C23.7,27,29,21,29,12.9L29,12.9z M25,13C25,7,20,2,14,2
	C7.9,2,3,7,3,13s4.9,11,11,11C20.1,24,25,19.1,25,13z M5,13c0-5,4-9,9-9s9,4.1,9,9s-4,9-9,9C9,22,5,18,5,13z"/>
<path class="st0" d="M-10.8-2.2"/>
</svg>
